


Note : 1st On Net. DVD Is Out Now. Enjoy.



Screens : 


 
http://i.imgur.com/wYze5.jpg
 
http://i.imgur.com/bXHoU.jpg
 
http://i.imgur.com/gcbf8.jpg



Extra Screens :


 
http://i.imgur.com/u3xao.jpg
 
http://i.imgur.com/EWfNw.jpg
 
http://i.imgur.com/BrpKH.jpg



Media Info :


Format                           : AVI
Format/Info                      : Audio Video Interleave
File size                        : 699 MiB
Duration                         : 2h 7mn
Overall bit rate                 : 766 Kbps

Video
ID                               : 0
Format                           : MPEG-4 Visual
Format settings, GMC             : No warppoints
Format settings, Matrix          : Custom
Codec ID                         : XVID
Codec ID/Hint                    : XviD
Duration                         : 2h 7mn
Bit rate                         : 639 Kbps
Width                            : 720 pixels
Height                           : 320 pixels
Display aspect ratio             : 2.25:1
Frame rate                       : 29.970 fps
Color space                      : YUV
Chroma subsampling               : 4:2:0
Bit depth                        : 8 bits
Scan type                        : Progressive
Compression mode                 : Lossy
Bits/(Pixel*Frame)               : 0.093
Stream size                      : 583 MiB (83%)

Audio
ID                               : 1
Format                           : MPEG Audio
Format version                   : Version 1
Format profile                   : Layer 3
Mode                             : Joint stereo
Mode extension                   : MS Stereo
Codec ID                         : 55
Codec ID/Hint                    : MP3
Duration                         : 2h 7mn
Bit rate mode                    : Variable
Bit rate                         : 114 Kbps
Nominal bit rate                 : 128 Kbps
Channel(s)                       : 2 channels
Sampling rate                    : 48.0 KHz
Compression mode                 : Lossy
Stream size                      : 104 MiB (15%)
Alignment                        : Aligned on interleaves
Interleave, duration             : 24 ms (0.72 video frame)





